<svg version="1.2" xmlns="http://www.w3.org/2000/svg" viewBox="0 0 60 97" width="60" height="97"><style>.a{fill:#03045e}</style><path class="a" d="m48.2 87.8q-0.3 0-0.7-0.1-0.3 0-0.7-0.1-0.3-0.2-0.6-0.4-0.3-0.2-0.5-0.4l-36.3-36.3q-0.5-0.5-0.8-1.1-0.3-0.7-0.3-1.4 0-0.7 0.3-1.4 0.3-0.6 0.8-1.1l36.3-36.3c0.6-0.8 1.5-1.3 2.6-1.4 1-0.1 2 0.3 2.7 1 0.7 0.7 1.1 1.7 1 2.7-0.1 1.1-0.6 2-1.4 2.6l-33.8 33.9 33.8 33.9q0.5 0.5 0.8 1.1 0.2 0.7 0.2 1.4 0 0.6-0.2 1.3-0.3 0.6-0.8 1.1-0.2 0.2-0.5 0.4-0.3 0.2-0.6 0.4-0.3 0.1-0.6 0.2-0.4 0-0.7 0z"/></svg>