<svg id="fe95b46a-aa2b-4301-8384-25c150277de9" data-name="Layer 1" xmlns="http://www.w3.org/2000/svg" viewBox="0 0 700 700"><title>icons</title><path d="M179.5,336.4a31.8,31.8,0,1,1,31.8,31.8,31.8,31.8,0,0,1-31.8-31.8Z"/><path d="M357.4,208.9a46.4,46.4,0,1,1-53.2,38.4,46.4,46.4,0,0,1,53.2-38.4"/><path d="M456.9,336.4a31.8,31.8,0,1,1,31.8,31.8A31.9,31.9,0,0,1,456.9,336.4Z"/><path d="M573.9,358.9,531.8,416a30.5,30.5,0,0,0-6,18.2v44.9a12.6,12.6,0,0,1-12.6,12.6H463.3a12.5,12.5,0,0,1-12.6-12.6V434.2a30.5,30.5,0,0,0-6-18.2l-39.2-53.2-1.6,2.1a39.4,39.4,0,0,0-7.6,23.1v88.7a15.1,15.1,0,0,1-15.1,15H318.7a15,15,0,0,1-15-15V388.1a39.5,39.5,0,0,0-7.6-23.2l-1.6-2.1L255.3,416a30.5,30.5,0,0,0-6,18.2v44.9a12.5,12.5,0,0,1-12.6,12.6H186.8a12.5,12.5,0,0,1-12.6-12.6V434.2a30.5,30.5,0,0,0-6-18.2l-42.1-57.1a15.8,15.8,0,0,1,3.4-22.2,15.2,15.2,0,0,1,9.4-3.1,16.1,16.1,0,0,1,12.8,6.4L168,362.1a54.3,54.3,0,0,0,43.8,22.1,53.9,53.9,0,0,0,43.7-22.1L271.8,340a18.2,18.2,0,0,1,3.4-3.4l-31.8-43.2a19.2,19.2,0,0,1,4-26.8,18.9,18.9,0,0,1,11.4-3.7,19.3,19.3,0,0,1,15.5,7.8l20.3,27.6A68.8,68.8,0,0,0,381,318.8a67.9,67.9,0,0,0,24.3-20.5l20.4-27.6a18.7,18.7,0,0,1,12.6-7.6,18.9,18.9,0,0,1,14.2,3.5h.2a18.8,18.8,0,0,1,7.4,12.5,18.6,18.6,0,0,1-3.5,14.2h0l-31.8,43.2a18.2,18.2,0,0,1,3.4,3.4l16.2,22.1a54.5,54.5,0,0,0,43.8,22.1A53.9,53.9,0,0,0,532,362.1L548.3,340a16,16,0,0,1,10.4-6.3,16.2,16.2,0,0,1,11,2.4h.1l.7.6a15.7,15.7,0,0,1,6.3,10.4,16,16,0,0,1-2.9,11.8Z"/></svg>