<svg id="bbaf2e59-0f15-49f4-9928-222b99c1b98b" data-name="Layer 1" xmlns="http://www.w3.org/2000/svg" xmlns:xlink="http://www.w3.org/1999/xlink" viewBox="0 0 700 700"><defs><style>.bc10341b-a8de-4419-81ec-d4db00378fde,.bcec697b-f399-4fcf-8746-aea40160042c{fill-rule:evenodd;}.bc10341b-a8de-4419-81ec-d4db00378fde{stroke:#fff;stroke-miterlimit:10;stroke-width:10px;}</style><symbol id="fdbeca7f-27b9-4ea7-af1a-be838e80868b" data-name="t 2" viewBox="0 0 0.2 0.2"><path d="M.2,0Z"/></symbol><symbol id="bd0ab7eb-1965-46a0-8830-6632adeb4bdc" data-name="a 2" viewBox="0 0 0.1 0.2"><path d="M.1.1H0V.2H.1Z"/></symbol><symbol id="f71edb46-c1a7-44f6-8721-34eae18891a0" data-name="d 2" viewBox="0 0 0.2 0.2"><path d="M.2.1ZM.1.1Z"/></symbol><symbol id="a0327860-cf70-4b0b-823a-6900fe5ee5a7" data-name="f 2" viewBox="0 0 0.2 0.2"><path d="M.1.1ZM.2.1h0Z"/></symbol><symbol id="e1197989-ff52-4264-a73c-94cf09309e78" data-name="c 2" viewBox="0 0 0.1 0.2"><path d="M.1.2Z"/></symbol><symbol id="b9f71b83-640f-4dac-85e6-861d71b0fd6c" data-name="k 2" viewBox="0 0 0.2 0.3"><path d="M.1.2H.2V0H.1ZM.1,0Z"/></symbol><symbol id="a5327c2e-c577-4ec0-9a4a-0fbe58850509" data-name="j 2" viewBox="0 0 0.2 0.3"><path d="M.1,0ZM0,.2H0V.2Z"/></symbol><symbol id="a8ffc0ad-defa-4382-b856-33e6c17cc58f" data-name="i 2" viewBox="0 0 0.2 0.2"><path d="M0,.2H.2V0H0Z"/></symbol><symbol id="a88ee809-45ad-4626-bdaf-e28f6ee41283" data-name="e 2" viewBox="0 0 0.2 0.3"><path d="M0,.1H0V.2H0ZM.1.2h0Z"/></symbol><symbol id="f62bf4c8-4ecd-422f-8b47-e37fc57ae3d1" data-name="b 2" viewBox="0 0 0.2 0.2"><path d="M.1.1ZM.1.2h0Z"/></symbol><symbol id="b6f1a24e-4a8b-41f0-81ba-07ddde7c18eb" data-name="h 2" viewBox="0 0 0.2 0.2"><path d="M.2.2h0Z"/></symbol><symbol id="a4e85147-73be-48ce-9e83-15068e66bfb7" data-name="g 2" viewBox="0 0 0.2 0.2"><path d="M.2.1H0V.2H.2Z"/></symbol><symbol id="faf8bc0b-3290-4ecc-b7e9-660327278941" data-name="r 2" viewBox="0 0 0.1 0.3"><path d="M.1.2Z"/></symbol><symbol id="b5b4f024-55f7-4a2e-a309-a308979f33fc" data-name="q 2" viewBox="0 0 0.3 0.2"><path d="M.2.1H0V.2H.2Z"/></symbol><symbol id="e846d290-89d3-437f-943b-f96ce0112be5" data-name="p 2" viewBox="0 0 0.2 0.3"><path d="M.2.1H0V.2H.2Z"/></symbol><symbol id="f6ff5a96-4330-4c75-bcb8-deb396944447" data-name="o 2" viewBox="0 0 0.2 0.2"><path d="M0,.2H.2V0H.1V0H0Z"/></symbol><symbol id="ba242255-2b13-436f-9f5f-59669d44d0d0" data-name="n 2" viewBox="0 0 0.2 0.2"><path d="M0,.1H.2V0H0Z"/></symbol><symbol id="ef8fc39e-4c2b-401f-99ea-63baa3e3caaf" data-name="m 2" viewBox="0 0 0.2 0.2"><path d="M0,.2H0ZM.1.2h0Z"/></symbol><symbol id="a74e33b2-9616-4104-b670-95f00466e3d6" data-name="l 2" viewBox="0 0 0.1 0.3"><path d="M0,.2H0ZM0,.3H0Z"/></symbol></defs><title>icons</title><path class="bcec697b-f399-4fcf-8746-aea40160042c" d="M196.8,453.8c46.9-14.1,83-17,149.7,26.9l84.1-18.4c23.8-5.1,28.7,11.9,32.5,24.1L359.8,538.8c-8.2,5.3-2.6,14,4,11l110.8-55.7,3-11.3L571,417.4c21.3-14.9,26.4,1.9,31.3,13.3L499.8,534.5,390.5,590.8a76.2,76.2,0,0,1-45,8.2L196.9,582.2V453.8Zm-99.1-1.5H184V601.7H97.7ZM397.5,196.1c10.8-30.5,24.3-55,24.2-55.9-3.7-16.1-23.9-30.5-45.5-23.2-3.7-11.8-16.8-18.8-30.2-19.9-13.4,1.1-26.6,8.1-30.2,19.9-21.5-7.3-41.7,7.1-45.4,23.2-.2,1,14.2,26.9,25.2,58.8-60,25.8-102.8,93-102.8,171.9,0,25.4,3.5,46.9,9.8,65a198.5,198.5,0,0,1,34.2-6.5c42.1-3.7,78.3,12.6,112.8,34.6l77.6-16.9c14.8-3.2,29.4-.8,39.5,11.2a38.2,38.2,0,0,1,5.9,8.9l16.3-11.5c11.5-21.6,18.3-49.5,18.3-84.8,0-81.9-46.2-151.3-109.7-174.8ZM350,286a77.4,77.4,0,1,1-77.4,77.4A77.3,77.3,0,0,1,350,286Zm7.1,15.4v13.4a26.3,26.3,0,0,1,15.1,8.7,29.1,29.1,0,0,1,6.7,18.6V344l-14.2-.7v-1.1a14.6,14.6,0,0,0-3.3-9.5c-2.1-2.5-5.4-4.2-10-4.4H350a14.2,14.2,0,0,0-10.1,3.8,13.2,13.2,0,0,0-3.6,6.1,12.4,12.4,0,0,0-.2,6.6,8.5,8.5,0,0,0,3.7,5h0l13.3,7.3h0l13.9,7.3.2.2a21.4,21.4,0,0,1,10.3,13.6,26,26,0,0,1-.1,14.1,26.8,26.8,0,0,1-7.6,12.5,26.2,26.2,0,0,1-12.7,6.9v13.6H342.9V412a25.7,25.7,0,0,1-15-8.7,28.8,28.8,0,0,1-6.8-18.6,10.9,10.9,0,0,1,.1-1.9l14.1.7v1.1a14.6,14.6,0,0,0,3.3,9.5c2.1,2.4,5.4,4.1,10,4.3H350a15.2,15.2,0,0,0,10.1-3.8,13.2,13.2,0,0,0,3.6-6.1,11.4,11.4,0,0,0,.1-6.6,8.1,8.1,0,0,0-3.5-5l-13.9-7.4h-.1l-13.4-7.4h-.1a22.2,22.2,0,0,1-10.4-13.6A27.5,27.5,0,0,1,342.9,315V301.4Z"/><use width="0.2" height="0.23" transform="matrix(0.9, 0, 0, -0.9, 97.71, 602.56)" xlink:href="#fdbeca7f-27b9-4ea7-af1a-be838e80868b"/><use width="0.1" height="0.19" transform="matrix(0.9, 0, 0, -0.9, 97.93, 602.56)" xlink:href="#bd0ab7eb-1965-46a0-8830-6632adeb4bdc"/><use width="0.2" height="0.19" transform="matrix(0.9, 0, 0, -0.9, 98.06, 602.56)" xlink:href="#f71edb46-c1a7-44f6-8721-34eae18891a0"/><use width="0.2" height="0.19" transform="matrix(0.9, 0, 0, -0.9, 98.26, 602.56)" xlink:href="#a0327860-cf70-4b0b-823a-6900fe5ee5a7"/><use width="0.1" height="0.22" transform="matrix(0.9, 0, 0, -0.9, 98.44, 602.56)" xlink:href="#e1197989-ff52-4264-a73c-94cf09309e78"/><use width="0.2" height="0.25" transform="matrix(0.9, 0, 0, -0.9, 98.78, 602.56)" xlink:href="#b9f71b83-640f-4dac-85e6-861d71b0fd6c"/><use width="0.2" height="0.25" transform="matrix(0.9, 0, 0, -0.9, 99.1, 602.56)" xlink:href="#a5327c2e-c577-4ec0-9a4a-0fbe58850509"/><use width="0.2" height="0.23" transform="matrix(0.9, 0, 0, -0.9, 99.28, 602.62)" xlink:href="#a8ffc0ad-defa-4382-b856-33e6c17cc58f"/><use width="0.2" height="0.25" transform="matrix(0.9, 0, 0, -0.9, 99.6, 602.62)" xlink:href="#a88ee809-45ad-4626-bdaf-e28f6ee41283"/><use width="0.2" height="0.19" transform="matrix(0.9, 0, 0, -0.9, 99.79, 602.56)" xlink:href="#f62bf4c8-4ecd-422f-8b47-e37fc57ae3d1"/><use width="0.2" height="0.19" transform="matrix(0.9, 0, 0, -0.9, 100.19, 602.56)" xlink:href="#b6f1a24e-4a8b-41f0-81ba-07ddde7c18eb"/><use width="0.2" height="0.19" transform="matrix(0.9, 0, 0, -0.9, 100.72, 602.56)" xlink:href="#a4e85147-73be-48ce-9e83-15068e66bfb7"/><use width="0.2" height="0.19" transform="matrix(0.9, 0, 0, -0.9, 101.38, 602.56)" xlink:href="#b6f1a24e-4a8b-41f0-81ba-07ddde7c18eb"/><use width="0.1" height="0.25" transform="matrix(0.9, 0, 0, -0.9, 97.69, 602.85)" xlink:href="#faf8bc0b-3290-4ecc-b7e9-660327278941"/><use width="0.3" height="0.19" transform="matrix(0.9, 0, 0, -0.9, 98.19, 602.85)" xlink:href="#b5b4f024-55f7-4a2e-a309-a308979f33fc"/><use width="0.2" height="0.25" transform="matrix(0.9, 0, 0, -0.9, 98.72, 602.85)" xlink:href="#e846d290-89d3-437f-943b-f96ce0112be5"/><use width="0.2" height="0.23" transform="matrix(0.9, 0, 0, -0.9, 99.22, 602.85)" xlink:href="#f6ff5a96-4330-4c75-bcb8-deb396944447"/><use width="0.2" height="0.17" transform="matrix(0.9, 0, 0, -0.9, 99.66, 602.85)" xlink:href="#ba242255-2b13-436f-9f5f-59669d44d0d0"/><use width="0.2" height="0.23" transform="matrix(0.9, 0, 0, -0.9, 100.17, 602.85)" xlink:href="#ef8fc39e-4c2b-401f-99ea-63baa3e3caaf"/><use width="0.1" height="0.31" transform="matrix(0.9, 0, 0, -0.9, 100.68, 602.91)" xlink:href="#a74e33b2-9616-4104-b670-95f00466e3d6"/><path class="bc10341b-a8de-4419-81ec-d4db00378fde" d="M222.2,220.8,192.8,185l-29.3,35.8L137.9,252a2.9,2.9,0,0,0,2.3,4.7h28.1V434.8h49.1V256.7h28.1a2.9,2.9,0,0,0,2.2-4.7Z"/></svg>