<svg id="fb8812ce-2472-4779-871a-60b550c93a82" data-name="Layer 1" xmlns="http://www.w3.org/2000/svg" viewBox="0 0 700 700"><title>icons</title><path d="M579.2,238.8C553.1,144.5,466.9,78.7,368.9,78.7H354.8c-83,0-155,47.4-190.7,116.5H141.7a38.4,38.4,0,0,0-38.3,38.3V273a88.3,88.3,0,0,0,18,53.3l8.7,11.4L99.9,384.1a28.6,28.6,0,0,0-3.6,23.6,29.2,29.2,0,0,0,15.5,18.2L141,439.4l11.5,65.3a67.9,67.9,0,0,0,67,56.3h52.7a15.6,15.6,0,0,1,15.2,12.3l8.5,41a8.8,8.8,0,0,0,8.5,7H507.7a8.9,8.9,0,0,0,8.5-10.6l-13-62.6a100.2,100.2,0,0,1,12.5-72.5l39.7-65.1a217.7,217.7,0,0,0,29.8-85.8A29.9,29.9,0,0,0,606,296.4v-28a29.9,29.9,0,0,0-26.8-29.6Zm-82.7,77.1a11.9,11.9,0,0,1-11.9,11.9h-67a11.9,11.9,0,0,1-11.8-11.9v-67A11.8,11.8,0,0,1,417.6,237h67a11.9,11.9,0,0,1,11.9,11.9Zm-277-103.2h76.9a22.2,22.2,0,0,1,22.1,22.2v3.6H286.1a29.9,29.9,0,0,0-29.9,29.9v28a29.9,29.9,0,0,0,29.9,29.8h32.4v3.7a22.2,22.2,0,0,1-22.1,22.2H219.5Zm168.8,96H286.1a12.4,12.4,0,0,1-12.4-12.3v-28A12.5,12.5,0,0,1,286.1,256H388.3ZM121,273V233.5a20.8,20.8,0,0,1,20.7-20.8H202V352H182.2a39.1,39.1,0,0,1-30.8-15.2l-16.1-21.1A71.4,71.4,0,0,1,121,273Zm467.5,23.4a12.3,12.3,0,0,1-12.4,12.3H514V256h62.1a12.4,12.4,0,0,1,12.4,12.4Z"/></svg>